<?xml version="1.0" encoding="utf-8"?>
<!-- Generator: Adobe Illustrator 24.3.0, SVG Export Plug-In . SVG Version: 6.00 Build 0)  -->
<svg version="1.1" id="Layer_1" xmlns="http://www.w3.org/2000/svg" xmlns:xlink="http://www.w3.org/1999/xlink" x="0px" y="0px"
	 viewBox="0 0 512 512" style="enable-background:new 0 0 512 512;" xml:space="preserve">
<style type="text/css">
	.st0{fill:#00A9E5;}
	.st1{fill:#353535;}
	.st2{fill:#00BFB3;}
	.st3{fill:#019B8F;}
	.st4{fill:#F9B110;}
	.st5{fill:#FED10A;}
</style>
<g id="XMLID_1_">
	<path id="XMLID_6_" d="M139.99,272.69c-5.33,0-9.4-1.68-12.48-4.91c-2.95-3.37-4.49-7.86-4.49-13.61c0-5.89,1.4-10.66,4.21-14.03
		c2.81-3.37,6.59-5.05,11.36-5.05c4.49,0,8,1.4,10.66,4.35c2.67,2.95,3.93,6.87,3.93,12.06v4.21h-22.72
		c0.14,3.51,0.98,6.17,2.67,8.14c1.68,1.96,4.07,2.81,7.15,2.81c1.96,0,3.93-0.14,5.61-0.56c1.68-0.42,3.65-1.12,5.61-1.96v6.31
		c-1.82,0.84-3.51,1.54-5.33,1.96C144.34,272.55,142.38,272.69,139.99,272.69z M138.73,240.99c-2.24,0-4.21,0.84-5.47,2.38
		c-1.4,1.54-2.24,3.79-2.52,6.87h15.43c0-2.95-0.7-5.33-1.96-6.87C142.8,241.69,140.98,240.99,138.73,240.99z"/>
	<rect id="XMLID_7_" x="161.46" y="220.93" width="7.29" height="51.2"/>
	<path id="XMLID_23_" d="M200.31,272.13l-1.4-5.05h-0.28c-1.68,2.24-3.23,3.79-4.91,4.49c-1.68,0.84-3.79,1.26-6.45,1.26
		c-3.37,0-5.89-0.98-7.86-2.95c-1.82-1.96-2.81-4.63-2.81-8.14c0-3.79,1.26-6.59,3.93-8.42c2.67-1.96,6.59-2.95,11.92-3.09
		l5.89-0.14v-1.96c0-2.38-0.56-4.07-1.54-5.19c-0.98-1.12-2.52-1.68-4.77-1.68c-1.68,0-3.37,0.28-5.05,0.84
		c-1.54,0.56-3.09,1.26-4.63,1.96l-2.38-5.47c1.82-0.98,3.93-1.82,6.03-2.38c2.24-0.56,4.21-0.84,6.17-0.84
		c4.35,0,7.57,0.98,9.82,3.09c2.24,1.96,3.37,5.19,3.37,9.54v24.55h-5.05V272.13z M189.65,266.8c2.67,0,4.77-0.84,6.31-2.38
		c1.54-1.54,2.38-3.79,2.38-6.59v-3.23l-4.35,0.14c-3.37,0.14-5.89,0.7-7.43,1.82c-1.54,1.12-2.38,2.81-2.38,5.05
		c0,1.68,0.42,2.95,1.4,3.79C186.42,266.38,187.83,266.8,189.65,266.8z"/>
	<path id="XMLID_24_" d="M238.47,261.75c0,3.51-1.26,6.31-3.65,8.14c-2.38,1.96-5.89,2.81-10.38,2.81c-4.49,0-8.14-0.7-10.94-2.24
		v-6.73c4.07,1.96,7.72,2.95,11.22,2.95c4.49,0,6.73-1.4,6.73-4.35c0-0.98-0.28-1.68-0.7-2.24c-0.56-0.56-1.26-1.26-2.38-1.96
		c-1.12-0.7-2.67-1.4-4.77-2.24c-3.93-1.68-6.59-3.23-8-4.91c-1.4-1.68-2.1-3.79-2.1-6.31c0-3.09,1.12-5.47,3.51-7.29
		c2.38-1.68,5.61-2.52,9.54-2.52c4.07,0,7.86,0.84,11.36,2.67l-2.38,5.75c-3.65-1.68-6.73-2.38-9.26-2.38
		c-3.79,0-5.75,1.12-5.75,3.51c0,1.12,0.56,2.1,1.54,2.95c0.98,0.84,3.23,1.82,6.45,3.23c2.81,1.12,4.91,2.24,6.17,3.23
		c1.26,0.98,2.24,2.1,2.81,3.37C238.19,258.52,238.47,259.93,238.47,261.75z"/>
	<path id="XMLID_25_" d="M259.09,266.52c1.82,0,3.51-0.28,5.33-0.84v5.75c-0.84,0.42-1.82,0.7-3.09,0.98
		c-1.26,0.28-2.52,0.42-3.93,0.42c-6.87,0-10.24-3.93-10.24-11.64v-19.64h-4.63v-3.37l5.05-2.81l2.52-7.72h4.49v8.14h9.68v5.89
		h-9.68v19.5c0,1.82,0.42,3.23,1.26,4.07C256.42,266.1,257.68,266.52,259.09,266.52z"/>
	<path id="XMLID_31_" d="M270.73,226.12c0-1.4,0.42-2.38,1.12-3.23c0.7-0.7,1.68-1.12,3.09-1.12c1.26,0,2.24,0.42,2.95,1.12
		c0.7,0.7,1.12,1.82,1.12,3.23c0,1.26-0.42,2.38-1.12,3.09c-0.7,0.7-1.68,1.12-2.95,1.12s-2.38-0.42-3.09-1.12
		C271.01,228.51,270.73,227.38,270.73,226.12z M278.44,272.13h-7.29V235.8h7.29V272.13z"/>
	<path id="XMLID_32_" d="M302.43,272.69c-5.19,0-9.12-1.54-11.78-4.77c-2.67-3.23-4.07-7.86-4.07-13.89c0-6.17,1.4-10.8,4.21-14.17
		c2.81-3.23,6.87-4.91,12.2-4.91c3.65,0,6.87,0.7,9.68,2.1l-2.24,6.17c-3.09-1.26-5.61-1.96-7.57-1.96c-5.89,0-8.84,4.21-8.84,12.48
		c0,4.07,0.7,7.15,2.24,9.26c1.4,2.1,3.65,3.09,6.45,3.09c3.23,0,6.31-0.84,9.12-2.52v6.73c-1.26,0.84-2.67,1.4-4.21,1.68
		C306.08,272.27,304.53,272.69,302.43,272.69z"/>
	<path id="XMLID_33_" d="M342.83,261.75c0,3.51-1.26,6.31-3.65,8.14s-5.89,2.81-10.38,2.81c-4.49,0-8.14-0.7-10.94-2.24v-6.73
		c4.07,1.96,7.72,2.95,11.22,2.95c4.49,0,6.73-1.4,6.73-4.35c0-0.98-0.28-1.68-0.7-2.24c-0.56-0.56-1.26-1.26-2.38-1.96
		c-1.12-0.7-2.67-1.4-4.77-2.24c-3.93-1.68-6.59-3.23-8-4.91c-1.4-1.68-2.1-3.79-2.1-6.31c0-3.09,1.12-5.47,3.51-7.29
		c2.38-1.68,5.61-2.52,9.54-2.52c4.07,0,7.86,0.84,11.36,2.67l-2.38,5.75c-3.65-1.68-6.73-2.38-9.26-2.38
		c-3.79,0-5.75,1.12-5.75,3.51c0,1.12,0.56,2.1,1.54,2.95c0.98,0.84,3.23,1.82,6.45,3.23c2.81,1.12,4.91,2.24,6.17,3.23
		s2.24,2.1,2.81,3.37C342.55,258.52,342.83,259.93,342.83,261.75z"/>
	<path id="XMLID_36_" d="M365.55,272.69c-5.33,0-9.4-1.68-12.48-4.91c-2.95-3.37-4.49-7.86-4.49-13.61c0-5.89,1.4-10.66,4.21-14.03
		c2.81-3.37,6.59-5.05,11.36-5.05c4.49,0,8,1.4,10.66,4.35c2.67,2.95,3.93,6.87,3.93,12.06v4.21h-22.72
		c0.14,3.51,0.98,6.17,2.67,8.14c1.68,1.96,4.07,2.81,7.15,2.81c1.96,0,3.93-0.14,5.61-0.56c1.68-0.42,3.65-1.12,5.61-1.96v6.31
		c-1.82,0.84-3.51,1.54-5.33,1.96C369.9,272.55,367.8,272.69,365.55,272.69z M364.29,240.99c-2.24,0-4.21,0.84-5.47,2.38
		c-1.4,1.54-2.24,3.79-2.52,6.87h15.43c0-2.95-0.7-5.33-1.96-6.87C368.36,241.69,366.54,240.99,364.29,240.99z"/>
	<path id="XMLID_40_" d="M408.34,272.13l-1.4-5.05h-0.28c-1.68,2.24-3.23,3.79-4.91,4.49c-1.68,0.84-3.79,1.26-6.45,1.26
		c-3.37,0-5.89-0.98-7.86-2.95c-1.96-1.96-2.81-4.63-2.81-8.14c0-3.79,1.26-6.59,3.93-8.42c2.67-1.96,6.59-2.95,11.92-3.09
		l5.89-0.14v-1.96c0-2.38-0.56-4.07-1.54-5.19s-2.52-1.68-4.77-1.68c-1.68,0-3.37,0.28-5.05,0.84c-1.54,0.56-3.09,1.26-4.63,1.96
		l-2.38-5.47c1.82-0.98,3.93-1.82,6.03-2.38c2.24-0.56,4.21-0.84,6.17-0.84c4.35,0,7.57,0.98,9.82,3.09
		c2.24,1.96,3.37,5.19,3.37,9.54v24.55h-5.05V272.13z M397.54,266.8c2.67,0,4.77-0.84,6.31-2.38s2.38-3.79,2.38-6.59v-3.23
		l-4.35,0.14c-3.37,0.14-5.89,0.7-7.43,1.82c-1.54,1.12-2.38,2.81-2.38,5.05c0,1.68,0.42,2.95,1.4,3.79
		C394.45,266.38,395.71,266.8,397.54,266.8z"/>
	<path id="XMLID_41_" d="M440.88,235.1c1.4,0,2.67,0.14,3.65,0.28l-0.7,7.15c-0.98-0.28-2.1-0.42-3.23-0.42
		c-2.95,0-5.19,0.98-7.01,3.09c-1.82,1.96-2.67,4.63-2.67,7.86v18.94h-7.29v-36.33h5.61l0.98,6.45h0.42
		c1.12-2.1,2.67-3.93,4.49-5.19C436.81,235.66,438.78,235.1,440.88,235.1z"/>
	<path id="XMLID_42_" d="M464.59,272.69c-5.19,0-9.12-1.54-11.78-4.77s-4.07-7.86-4.07-13.89c0-6.17,1.4-10.8,4.21-14.17
		c2.81-3.23,6.87-4.91,12.2-4.91c3.65,0,6.87,0.7,9.68,2.1l-2.24,6.17c-3.09-1.26-5.61-1.96-7.57-1.96c-5.89,0-8.84,4.21-8.84,12.48
		c0,4.07,0.7,7.15,2.24,9.26c1.4,2.1,3.65,3.09,6.45,3.09c3.23,0,6.31-0.84,9.12-2.52v6.73c-1.26,0.84-2.67,1.4-4.21,1.68
		C468.23,272.27,466.69,272.69,464.59,272.69z"/>
	<path id="XMLID_46_" d="M512,272.13h-7.29v-22.3c0-2.81-0.56-4.91-1.54-6.31c-1.12-1.4-2.81-2.1-5.05-2.1
		c-3.09,0-5.33,0.98-6.73,2.95c-1.4,1.96-2.1,5.19-2.1,9.68v18.1h-7.29v-51.2h7.29v13.05c0,2.1-0.14,4.35-0.42,6.73h0.42
		c0.98-1.82,2.38-3.09,4.07-4.07c1.68-0.98,3.79-1.4,6.17-1.4c8.28,0,12.34,4.49,12.34,13.33v23.57H512z"/>
	<path id="XMLID_47_" class="st0" d="M72.38,239.17H44.89c0.14,0.7,0.42,1.4,0.56,1.96c0.84,3.37,1.4,6.87,1.68,10.52
		c0.14,1.4,0.14,2.95,0.14,4.35s0,2.95-0.14,4.35c-0.28,3.65-0.84,7.15-1.68,10.52c-0.14,0.7-0.42,1.4-0.56,1.96h27.49
		c8.7,0,15.71-7.57,15.71-16.83S81.08,239.17,72.38,239.17z"/>
	<path id="XMLID_48_" class="st1" d="M47.13,260.35c0.14-1.4,0.14-2.95,0.14-4.35s0-2.95-0.14-4.35c-0.28-3.65-0.84-7.15-1.68-10.52
		c-0.14-0.7-0.42-1.4-0.56-1.96H2.38C0.84,244.5,0,250.11,0,256s0.84,11.5,2.38,16.83h42.5c0.14-0.7,0.42-1.4,0.56-1.96
		C46.29,267.5,46.85,264,47.13,260.35z"/>
	<path id="XMLID_49_" class="st2" d="M77.15,278.44H42.92c-0.98,2.52-2.24,4.91-3.51,7.15c-1.96,3.51-4.35,6.59-7.01,9.54
		c-0.84,0.98-1.82,1.82-2.67,2.81c-1.82,1.82-3.93,3.37-6.03,4.91c8.28,5.89,18.24,9.26,28.9,9.26c18.24,0,34.37-9.96,43.77-24.97
		C91.46,281.81,84.73,278.44,77.15,278.44z"/>
	<path id="XMLID_54_" class="st3" d="M39.42,285.6c1.4-2.24,2.52-4.63,3.51-7.15H4.35c4.07,9.96,10.8,18.52,19.22,24.41
		c2.1-1.54,4.07-3.09,6.03-4.91c0.98-0.84,1.82-1.82,2.67-2.81C35.07,292.33,37.31,289.1,39.42,285.6z"/>
	<path id="XMLID_55_" class="st4" d="M32.4,216.86c-0.84-0.98-1.82-1.82-2.67-2.81c-1.82-1.82-3.93-3.37-6.03-4.91
		c-8.42,5.89-15.15,14.45-19.22,24.41h38.58c-0.98-2.52-2.24-4.91-3.51-7.15C37.31,222.9,35.07,219.67,32.4,216.86z"/>
	<path id="XMLID_56_" class="st5" d="M52.6,199.89c-10.66,0-20.62,3.37-28.9,9.26c2.1,1.54,4.07,3.09,6.03,4.91
		c0.98,0.84,1.82,1.82,2.67,2.81c2.67,2.95,5.05,6.03,7.01,9.54c1.4,2.24,2.52,4.63,3.51,7.15h34.23c7.57,0,14.31-3.37,19.22-8.7
		C86.83,209.85,70.84,199.89,52.6,199.89z"/>
</g>
</svg>
